<svg width="21" height="20" viewBox="0 0 21 20" fill="none" xmlns="http://www.w3.org/2000/svg">
<g id="Frame">
<path id="Vector" fill-rule="evenodd" clip-rule="evenodd" d="M1.75 5.3125C1.75 4.44917 2.45 3.75 3.3125 3.75H17.6875C18.55 3.75 19.25 4.45 19.25 5.3125V7.83417C19.2501 7.94394 19.2212 8.05181 19.1664 8.14689C19.1115 8.24198 19.0326 8.32094 18.9375 8.37583C18.6521 8.54018 18.415 8.77684 18.2502 9.06197C18.0853 9.34711 17.9985 9.67064 17.9985 10C17.9985 10.3294 18.0853 10.6529 18.2502 10.938C18.415 11.2232 18.6521 11.4598 18.9375 11.6242C19.0326 11.6791 19.1115 11.758 19.1664 11.8531C19.2212 11.9482 19.2501 12.0561 19.25 12.1658V14.6875C19.25 15.55 18.55 16.25 17.6875 16.25H3.3125C2.8981 16.25 2.50067 16.0854 2.20765 15.7924C1.91462 15.4993 1.75 15.1019 1.75 14.6875V12.1658C1.74985 12.0561 1.77857 11.9483 1.83327 11.8532C1.88798 11.7582 1.96675 11.6792 2.06167 11.6242C2.34709 11.4598 2.58416 11.2232 2.74901 10.938C2.91385 10.6529 3.00064 10.3294 3.00064 10C3.00064 9.67064 2.91385 9.34711 2.74901 9.06197C2.58416 8.77684 2.34709 8.54018 2.06167 8.37583C1.96675 8.32084 1.88798 8.24183 1.83327 8.14675C1.77857 8.05167 1.74985 7.94386 1.75 7.83417V5.3125ZM14.25 4.375C14.4158 4.375 14.5747 4.44085 14.6919 4.55806C14.8092 4.67527 14.875 4.83424 14.875 5V5.625C14.875 5.79076 14.8092 5.94973 14.6919 6.06694C14.5747 6.18415 14.4158 6.25 14.25 6.25C14.0842 6.25 13.9253 6.18415 13.8081 6.06694C13.6908 5.94973 13.625 5.79076 13.625 5.625V5C13.625 4.83424 13.6908 4.67527 13.8081 4.55806C13.9253 4.44085 14.0842 4.375 14.25 4.375ZM14.875 8.125C14.875 7.95924 14.8092 7.80027 14.6919 7.68306C14.5747 7.56585 14.4158 7.5 14.25 7.5C14.0842 7.5 13.9253 7.56585 13.8081 7.68306C13.6908 7.80027 13.625 7.95924 13.625 8.125V8.75C13.625 8.91576 13.6908 9.07473 13.8081 9.19194C13.9253 9.30915 14.0842 9.375 14.25 9.375C14.4158 9.375 14.5747 9.30915 14.6919 9.19194C14.8092 9.07473 14.875 8.91576 14.875 8.75V8.125ZM14.25 10.625C14.4158 10.625 14.5747 10.6908 14.6919 10.8081C14.8092 10.9253 14.875 11.0842 14.875 11.25V11.875C14.875 12.0408 14.8092 12.1997 14.6919 12.3169C14.5747 12.4342 14.4158 12.5 14.25 12.5C14.0842 12.5 13.9253 12.4342 13.8081 12.3169C13.6908 12.1997 13.625 12.0408 13.625 11.875V11.25C13.625 11.0842 13.6908 10.9253 13.8081 10.8081C13.9253 10.6908 14.0842 10.625 14.25 10.625ZM14.875 14.375C14.875 14.2092 14.8092 14.0503 14.6919 13.9331C14.5747 13.8158 14.4158 13.75 14.25 13.75C14.0842 13.75 13.9253 13.8158 13.8081 13.9331C13.6908 14.0503 13.625 14.2092 13.625 14.375V15C13.625 15.1658 13.6908 15.3247 13.8081 15.4419C13.9253 15.5592 14.0842 15.625 14.25 15.625C14.4158 15.625 14.5747 15.5592 14.6919 15.4419C14.8092 15.3247 14.875 15.1658 14.875 15V14.375ZM5.5 10C5.5 9.83424 5.56585 9.67527 5.68306 9.55806C5.80027 9.44085 5.95924 9.375 6.125 9.375H10.5C10.6658 9.375 10.8247 9.44085 10.9419 9.55806C11.0592 9.67527 11.125 9.83424 11.125 10C11.125 10.1658 11.0592 10.3247 10.9419 10.4419C10.8247 10.5592 10.6658 10.625 10.5 10.625H6.125C5.95924 10.625 5.80027 10.5592 5.68306 10.4419C5.56585 10.3247 5.5 10.1658 5.5 10ZM6.125 11.875C5.95924 11.875 5.80027 11.9408 5.68306 12.0581C5.56585 12.1753 5.5 12.3342 5.5 12.5C5.5 12.6658 5.56585 12.8247 5.68306 12.9419C5.80027 13.0592 5.95924 13.125 6.125 13.125H8.625C8.79076 13.125 8.94973 13.0592 9.06694 12.9419C9.18415 12.8247 9.25 12.6658 9.25 12.5C9.25 12.3342 9.18415 12.1753 9.06694 12.0581C8.94973 11.9408 8.79076 11.875 8.625 11.875H6.125Z" fill="#283D27"/>
</g>
</svg>
