<svg width="21" height="20" viewBox="0 0 21 20" fill="none" xmlns="http://www.w3.org/2000/svg">
<g id="Frame">
<path id="Vector" d="M4.60241 1.875C4.18824 1.875 3.79074 2.04 3.49824 2.33333L2.41491 3.415C1.85509 3.97377 1.528 4.72404 1.49958 5.51448C1.47116 6.30493 1.74354 7.07675 2.26178 7.67428C2.78002 8.27181 3.50556 8.65059 4.29208 8.73424C5.0786 8.81788 5.86759 8.60017 6.49991 8.125C7.02241 8.51667 7.67157 8.75 8.37491 8.75C9.07824 8.75 9.72824 8.51667 10.2499 8.125C10.7716 8.51667 11.4216 8.75 12.1249 8.75C12.8282 8.75 13.4774 8.51667 13.9999 8.125C14.6322 8.60017 15.4212 8.81788 16.2077 8.73424C16.9943 8.65059 17.7198 8.27181 18.238 7.67428C18.7563 7.07675 19.0287 6.30493 19.0002 5.51448C18.9718 4.72404 18.6447 3.97377 18.0849 3.415L17.0016 2.3325C16.7087 2.0397 16.3115 1.87514 15.8974 1.875H4.60241Z" fill="#283D27"/>
<path id="Vector_2" fill-rule="evenodd" clip-rule="evenodd" d="M2.75 16.875V9.5792C3.93333 10.1409 5.31667 10.14 6.5 9.5792C7.08594 9.85713 7.72649 10.0009 8.375 10C9.045 10 9.68167 9.84837 10.25 9.57837C10.8359 9.85658 11.4764 10.0006 12.125 10C12.795 10 13.4308 9.84837 14 9.57837C15.1833 10.14 16.5667 10.1409 17.75 9.5792V16.875H18.375C18.5408 16.875 18.6997 16.9409 18.8169 17.0581C18.9342 17.1753 19 17.3343 19 17.5C19 17.6658 18.9342 17.8248 18.8169 17.942C18.6997 18.0592 18.5408 18.125 18.375 18.125H2.125C1.95924 18.125 1.80027 18.0592 1.68306 17.942C1.56585 17.8248 1.5 17.6658 1.5 17.5C1.5 17.3343 1.56585 17.1753 1.68306 17.0581C1.80027 16.9409 1.95924 16.875 2.125 16.875H2.75ZM5.25 11.875C5.25 11.7093 5.31585 11.5503 5.43306 11.4331C5.55027 11.3159 5.70924 11.25 5.875 11.25H8.375C8.54076 11.25 8.69973 11.3159 8.81694 11.4331C8.93415 11.5503 9 11.7093 9 11.875V14.375C9 14.5408 8.93415 14.6998 8.81694 14.817C8.69973 14.9342 8.54076 15 8.375 15H5.875C5.70924 15 5.55027 14.9342 5.43306 14.817C5.31585 14.6998 5.25 14.5408 5.25 14.375V11.875ZM12.125 11.25C11.9592 11.25 11.8003 11.3159 11.6831 11.4331C11.5658 11.5503 11.5 11.7093 11.5 11.875V16.25C11.5 16.595 11.78 16.875 12.125 16.875H14.625C14.7908 16.875 14.9497 16.8092 15.0669 16.692C15.1842 16.5748 15.25 16.4158 15.25 16.25V11.875C15.25 11.7093 15.1842 11.5503 15.0669 11.4331C14.9497 11.3159 14.7908 11.25 14.625 11.25H12.125Z" fill="#283D27"/>
</g>
</svg>
