<svg width="21" height="20" viewBox="0 0 21 20" fill="none" xmlns="http://www.w3.org/2000/svg">
<g id="Frame">
<path id="Vector" d="M14.25 5V5.625M14.25 8.125V8.75M14.25 11.25V11.875M14.25 14.375V15M6.75 10.625H11.125M6.75 12.5H9.25M3.3125 4.375C2.795 4.375 2.375 4.795 2.375 5.3125V7.83417C2.75562 8.05331 3.07177 8.3689 3.2916 8.74912C3.51143 9.12935 3.62717 9.5608 3.62717 10C3.62717 10.4392 3.51143 10.8706 3.2916 11.2509C3.07177 11.6311 2.75562 11.9467 2.375 12.1658V14.6875C2.375 15.205 2.795 15.625 3.3125 15.625H17.6875C18.205 15.625 18.625 15.205 18.625 14.6875V12.1658C18.2444 11.9467 17.9282 11.6311 17.7084 11.2509C17.4886 10.8706 17.3728 10.4392 17.3728 10C17.3728 9.5608 17.4886 9.12935 17.7084 8.74912C17.9282 8.3689 18.2444 8.05331 18.625 7.83417V5.3125C18.625 4.795 18.205 4.375 17.6875 4.375H3.3125Z" stroke="#7F7F7F" stroke-linecap="round" stroke-linejoin="round"/>
</g>
</svg>
