<svg width="21" height="20" viewBox="0 0 21 20" fill="none" xmlns="http://www.w3.org/2000/svg">
<g id="Frame">
<path id="Vector" d="M10.0584 3.20009C10.1756 3.08305 10.3344 3.01731 10.5001 3.01731C10.6657 3.01731 10.8245 3.08305 10.9417 3.20009L18.1834 10.4418C18.2406 10.5032 18.3096 10.5524 18.3863 10.5866C18.463 10.6207 18.5457 10.6391 18.6296 10.6406C18.7136 10.6421 18.7969 10.6266 18.8747 10.5952C18.9526 10.5638 19.0233 10.517 19.0826 10.4576C19.1419 10.3983 19.1887 10.3276 19.2202 10.2498C19.2516 10.1719 19.267 10.0886 19.2656 10.0047C19.2641 9.92074 19.2457 9.83798 19.2116 9.76131C19.1774 9.68465 19.1281 9.61565 19.0667 9.55843L11.8259 2.31676C11.6518 2.14265 11.4451 2.00454 11.2176 1.91031C10.9901 1.81608 10.7463 1.76758 10.5001 1.76758C10.2538 1.76758 10.01 1.81608 9.78253 1.91031C9.55504 2.00454 9.34835 2.14265 9.17424 2.31676L1.93257 9.55843C1.81877 9.67636 1.75585 9.83426 1.75735 9.99814C1.75885 10.162 1.82466 10.3187 1.94059 10.4346C2.05653 10.5504 2.21332 10.616 2.37719 10.6174C2.54106 10.6187 2.69891 10.5557 2.81673 10.4418L10.0584 3.20009Z" fill="#283D27"/>
<path id="Vector_2" d="M10.5 4.52657L17.2992 11.3257C17.3242 11.3507 17.3492 11.3741 17.375 11.3974V16.5624C17.375 17.4249 16.675 18.1249 15.8125 18.1249H13C12.8342 18.1249 12.6753 18.0591 12.5581 17.9418C12.4408 17.8246 12.375 17.6657 12.375 17.4999V13.7499C12.375 13.5841 12.3092 13.4252 12.1919 13.308C12.0747 13.1908 11.9158 13.1249 11.75 13.1249H9.25C9.08424 13.1249 8.92527 13.1908 8.80806 13.308C8.69085 13.4252 8.625 13.5841 8.625 13.7499V17.4999C8.625 17.6657 8.55915 17.8246 8.44194 17.9418C8.32473 18.0591 8.16576 18.1249 8 18.1249H5.1875C4.7731 18.1249 4.37567 17.9603 4.08265 17.6673C3.78962 17.3742 3.625 16.9768 3.625 16.5624V11.3974C3.65093 11.3742 3.67621 11.3503 3.70083 11.3257L10.5 4.5249V4.52657Z" fill="#283D27"/>
</g>
</svg>
