<svg width="20" height="20" viewBox="0 0 20 20" fill="none" xmlns="http://www.w3.org/2000/svg">
<g clip-path="url(#clip0_106_1722)">
<path d="M10.8333 16.6666H4.16667C3.72464 16.6666 3.30072 16.491 2.98816 16.1784C2.67559 15.8659 2.5 15.4419 2.5 14.9999V7.49992C2.5 7.05789 2.67559 6.63397 2.98816 6.32141C3.30072 6.00885 3.72464 5.83325 4.16667 5.83325H5C5.44203 5.83325 5.86595 5.65766 6.17851 5.3451C6.49107 5.03254 6.66667 4.60861 6.66667 4.16659C6.66667 3.94557 6.75446 3.73361 6.91074 3.57733C7.06702 3.42105 7.27899 3.33325 7.5 3.33325H12.5C12.721 3.33325 12.933 3.42105 13.0893 3.57733C13.2455 3.73361 13.3333 3.94557 13.3333 4.16659C13.3333 4.60861 13.5089 5.03254 13.8215 5.3451C14.134 5.65766 14.558 5.83325 15 5.83325H15.8333C16.2754 5.83325 16.6993 6.00885 17.0118 6.32141C17.3244 6.63397 17.5 7.05789 17.5 7.49992V10.4166" stroke="#283D27" stroke-linecap="round" stroke-linejoin="round"/>
<path d="M7.5 10.8333C7.5 11.4963 7.76339 12.1322 8.23223 12.601C8.70107 13.0699 9.33696 13.3333 10 13.3333C10.663 13.3333 11.2989 13.0699 11.7678 12.601C12.2366 12.1322 12.5 11.4963 12.5 10.8333C12.5 10.1702 12.2366 9.53433 11.7678 9.06548C11.2989 8.59664 10.663 8.33325 10 8.33325C9.33696 8.33325 8.70107 8.59664 8.23223 9.06548C7.76339 9.53433 7.5 10.1702 7.5 10.8333Z" stroke="#283D27" stroke-linecap="round" stroke-linejoin="round"/>
<path d="M15.8332 13.3333L14.1665 15.8333H17.4998L15.8332 18.3333" stroke="#283D27" stroke-linecap="round" stroke-linejoin="round"/>
</g>
<defs>
<clipPath id="clip0_106_1722">
<rect width="20" height="20" fill="white"/>
</clipPath>
</defs>
</svg>
