<svg width="70" height="70" viewBox="0 0 70 70" fill="none" xmlns="http://www.w3.org/2000/svg">
<g clip-path="url(#clip0_106_2784)">
<path d="M17.5 58.3333V52.5C17.5 47.8587 19.3437 43.4075 22.6256 40.1256C25.9075 36.8437 30.3587 35 35 35C39.6413 35 44.0925 36.8437 47.3744 40.1256C50.6563 43.4075 52.5 47.8587 52.5 52.5V58.3333C52.5 59.1069 52.1927 59.8487 51.6457 60.3957C51.0988 60.9427 50.3569 61.25 49.5833 61.25H20.4167C19.6431 61.25 18.9013 60.9427 18.3543 60.3957C17.8073 59.8487 17.5 59.1069 17.5 58.3333Z" stroke="black" stroke-opacity="0.5" stroke-width="2" stroke-linecap="round" stroke-linejoin="round"/>
<path d="M17.5 11.6667V17.5C17.5 22.1413 19.3437 26.5925 22.6256 29.8744C25.9075 33.1563 30.3587 35 35 35C39.6413 35 44.0925 33.1563 47.3744 29.8744C50.6563 26.5925 52.5 22.1413 52.5 17.5V11.6667C52.5 10.8931 52.1927 10.1513 51.6457 9.60427C51.0988 9.05729 50.3569 8.75 49.5833 8.75H20.4167C19.6431 8.75 18.9013 9.05729 18.3543 9.60427C17.8073 10.1513 17.5 10.8931 17.5 11.6667Z" stroke="black" stroke-opacity="0.5" stroke-width="2" stroke-linecap="round" stroke-linejoin="round"/>
</g>
<defs>
<clipPath id="clip0_106_2784">
<rect width="70" height="70" fill="white"/>
</clipPath>
</defs>
</svg>
