<svg width="21" height="20" viewBox="0 0 21 20" fill="none" xmlns="http://www.w3.org/2000/svg">
<g id="Frame">
<path id="Vector" d="M12 17.5V11.25C12 11.0842 12.0659 10.9253 12.1831 10.8081C12.3003 10.6908 12.4593 10.625 12.625 10.625H15.125C15.2908 10.625 15.4497 10.6908 15.567 10.8081C15.6842 10.9253 15.75 11.0842 15.75 11.25V17.5M12 17.5H2.71668M12 17.5H15.75M15.75 17.5H18.7833M17.625 17.5V7.79083C17.9572 7.59909 18.2408 7.33349 18.4538 7.01459C18.6669 6.6957 18.8038 6.33205 18.8538 5.95179C18.9038 5.57154 18.8657 5.18487 18.7424 4.82171C18.619 4.45855 18.4138 4.12864 18.1425 3.8575L17.1508 2.86667C16.9167 2.63218 16.5989 2.50029 16.2675 2.5H5.23168C4.90027 2.50029 4.58254 2.63218 4.34835 2.86667L3.35751 3.85667C3.08688 4.12811 2.88219 4.45809 2.75924 4.82114C2.63628 5.1842 2.59834 5.57064 2.64834 5.95068C2.69834 6.33072 2.83495 6.6942 3.04763 7.01309C3.2603 7.33199 3.54337 7.59779 3.87501 7.79M3.87501 17.4992V7.79167C4.37503 8.07999 4.95939 8.18647 5.52897 8.09306C6.09855 7.99965 6.61828 7.71209 7.00001 7.27917C7.23443 7.54537 7.52293 7.75852 7.84626 7.90437C8.16959 8.05023 8.52031 8.12545 8.87501 8.125C9.62168 8.125 10.2917 7.7975 10.75 7.27833C10.9844 7.54469 11.2728 7.75799 11.5962 7.90399C11.9195 8.05 12.2702 8.12534 12.625 8.125C13.3717 8.125 14.0417 7.7975 14.5 7.27833C14.8819 7.71112 15.4016 7.99852 15.9712 8.09178C16.5408 8.18504 17.1251 8.07842 17.625 7.79M6.37501 14.9992H9.50001C9.66577 14.9992 9.82474 14.9333 9.94195 14.8161C10.0592 14.6989 10.125 14.5399 10.125 14.3742V11.25C10.125 11.0842 10.0592 10.9253 9.94195 10.8081C9.82474 10.6908 9.66577 10.625 9.50001 10.625H6.37501C6.20925 10.625 6.05028 10.6908 5.93307 10.8081C5.81586 10.9253 5.75001 11.0842 5.75001 11.25V14.375C5.75001 14.7208 6.03001 14.9992 6.37501 14.9992Z" stroke="#7F7F7F" stroke-linecap="round" stroke-linejoin="round"/>
</g>
</svg>
