<svg width="20" height="20" viewBox="0 0 20 20" fill="none" xmlns="http://www.w3.org/2000/svg">
<g clip-path="url(#clip0_106_1715)">
<path d="M10 7.5L3.3575 11.19C3.09755 11.3344 2.88095 11.5456 2.73017 11.8019C2.57939 12.0582 2.49992 12.3502 2.5 12.6475V13.3333C2.5 13.7754 2.67559 14.1993 2.98816 14.5118C3.30072 14.8244 3.72464 15 4.16667 15H5" stroke="#283D27" stroke-linecap="round" stroke-linejoin="round"/>
<path d="M15.0002 15H15.8335C16.2755 15 16.6994 14.8244 17.012 14.5118C17.3246 14.1993 17.5002 13.7754 17.5002 13.3333V12.6475C17.5002 12.3502 17.4208 12.0582 17.27 11.8019C17.1192 11.5456 16.9026 11.3344 16.6427 11.19L10.0002 7.5C8.786 6.825 8.33933 5.55583 8.3335 4.16667C8.3335 3.72464 8.50909 3.30072 8.82165 2.98816C9.13421 2.67559 9.55814 2.5 10.0002 2.5C10.4422 2.5 10.8661 2.67559 11.1787 2.98816C11.4912 3.30072 11.6668 3.72464 11.6668 4.16667" stroke="#283D27" stroke-linecap="round" stroke-linejoin="round"/>
<path d="M5 14.9999C5 14.5579 5.17559 14.134 5.48816 13.8214C5.80072 13.5088 6.22464 13.3333 6.66667 13.3333H13.3333C13.7754 13.3333 14.1993 13.5088 14.5118 13.8214C14.8244 14.134 15 14.5579 15 14.9999V15.8333C15 16.2753 14.8244 16.6992 14.5118 17.0118C14.1993 17.3243 13.7754 17.4999 13.3333 17.4999H6.66667C6.22464 17.4999 5.80072 17.3243 5.48816 17.0118C5.17559 16.6992 5 16.2753 5 15.8333V14.9999Z" stroke="#283D27" stroke-linecap="round" stroke-linejoin="round"/>
</g>
<defs>
<clipPath id="clip0_106_1715">
<rect width="20" height="20" fill="white"/>
</clipPath>
</defs>
</svg>
