<svg width="21" height="20" viewBox="0 0 21 20" fill="none" xmlns="http://www.w3.org/2000/svg">
<g clip-path="url(#clip0_783_653)">
<path d="M16.75 10.4766L10.5 16.6666L4.25 10.4766C3.83775 10.0754 3.51303 9.59325 3.29629 9.06043C3.07954 8.52762 2.97546 7.9557 2.99061 7.38068C3.00576 6.80567 3.1398 6.24002 3.38429 5.71935C3.62879 5.19868 3.97844 4.73428 4.41124 4.35539C4.84403 3.97649 5.35058 3.69131 5.89901 3.5178C6.44743 3.3443 7.02583 3.28622 7.5978 3.34724C8.16977 3.40825 8.72291 3.58703 9.22239 3.87233C9.72187 4.15762 10.1569 4.54324 10.5 5.0049C10.8446 4.54659 11.2801 4.16434 11.7792 3.88207C12.2784 3.59981 12.8304 3.42361 13.4008 3.3645C13.9711 3.3054 14.5476 3.36465 15.094 3.53856C15.6404 3.71247 16.145 3.9973 16.5763 4.37521C17.0076 4.75311 17.3562 5.21597 17.6003 5.73481C17.8445 6.25365 17.9789 6.81731 17.9953 7.39049C18.0116 7.96368 17.9094 8.53406 17.6951 9.06594C17.4808 9.59783 17.1591 10.0798 16.75 10.4816" stroke="#283D27" stroke-width="2" stroke-linecap="round" stroke-linejoin="round"/>
</g>
<defs>
<clipPath id="clip0_783_653">
<rect width="20" height="20" fill="white" transform="translate(0.5)"/>
</clipPath>
</defs>
</svg>
