<svg width="20" height="20" viewBox="0 0 20 20" fill="none" xmlns="http://www.w3.org/2000/svg">
<g clip-path="url(#clip0_106_1859)">
<path d="M5.81583 2.56176C6.55338 2.43609 7.30973 2.47754 8.02913 2.68307C8.74853 2.88859 9.41263 3.25294 9.97249 3.74926L10.0033 3.77676L10.0317 3.75176C10.566 3.28284 11.1942 2.93325 11.8743 2.72633C12.5544 2.5194 13.2709 2.45989 13.9758 2.55176L14.1808 2.58176C15.0694 2.73518 15.9 3.12605 16.5845 3.71298C17.2691 4.29991 17.7822 5.06105 18.0695 5.91579C18.3568 6.77053 18.4076 7.68706 18.2166 8.56832C18.0255 9.44958 17.5997 10.2628 16.9842 10.9218L16.8342 11.0759L16.7942 11.1101L10.5858 17.2593C10.4426 17.4011 10.2527 17.4861 10.0516 17.4987C9.85038 17.5112 9.65146 17.4505 9.49166 17.3276L9.41333 17.2593L3.16916 11.0743C2.50768 10.4306 2.03724 9.61649 1.80996 8.72198C1.58268 7.82747 1.60741 6.88751 1.88143 6.00619C2.15544 5.12487 2.66804 4.33659 3.36246 3.72865C4.05688 3.12071 4.90602 2.71684 5.81583 2.56176Z" fill="#283D27"/>
</g>
<defs>
<clipPath id="clip0_106_1859">
<rect width="20" height="20" fill="white"/>
</clipPath>
</defs>
</svg>
