<svg width="21" height="20" viewBox="0 0 21 20" fill="none" xmlns="http://www.w3.org/2000/svg">
<g clip-path="url(#clip0_783_528)">
<path d="M3 17.5H18" stroke="black" stroke-opacity="0.5" stroke-width="0.833333" stroke-linecap="round" stroke-linejoin="round"/>
<path d="M3 5.83333V6.66667C3 7.32971 3.26339 7.96559 3.73223 8.43443C4.20107 8.90327 4.83696 9.16667 5.5 9.16667C6.16304 9.16667 6.79893 8.90327 7.26777 8.43443C7.73661 7.96559 8 7.32971 8 6.66667M3 5.83333H18M3 5.83333L4.66667 2.5H16.3333L18 5.83333M8 6.66667V5.83333M8 6.66667C8 7.32971 8.26339 7.96559 8.73223 8.43443C9.20107 8.90327 9.83696 9.16667 10.5 9.16667C11.163 9.16667 11.7989 8.90327 12.2678 8.43443C12.7366 7.96559 13 7.32971 13 6.66667M13 6.66667V5.83333M13 6.66667C13 7.32971 13.2634 7.96559 13.7322 8.43443C14.2011 8.90327 14.837 9.16667 15.5 9.16667C16.163 9.16667 16.7989 8.90327 17.2678 8.43443C17.7366 7.96559 18 7.32971 18 6.66667V5.83333" stroke="black" stroke-opacity="0.5" stroke-width="0.833333" stroke-linecap="round" stroke-linejoin="round"/>
<path d="M4.6665 17.5001V9.04175" stroke="black" stroke-opacity="0.5" stroke-width="0.833333" stroke-linecap="round" stroke-linejoin="round"/>
<path d="M16.3335 17.5001V9.04175" stroke="black" stroke-opacity="0.5" stroke-width="0.833333" stroke-linecap="round" stroke-linejoin="round"/>
<path d="M8 17.5V14.1667C8 13.7246 8.1756 13.3007 8.48816 12.9882C8.80072 12.6756 9.22464 12.5 9.66667 12.5H11.3333C11.7754 12.5 12.1993 12.6756 12.5118 12.9882C12.8244 13.3007 13 13.7246 13 14.1667V17.5" stroke="black" stroke-opacity="0.5" stroke-width="0.833333" stroke-linecap="round" stroke-linejoin="round"/>
</g>
<defs>
<clipPath id="clip0_783_528">
<rect width="20" height="20" fill="white" transform="translate(0.5)"/>
</clipPath>
</defs>
</svg>
