<svg width="20" height="20" viewBox="0 0 20 20" fill="none" xmlns="http://www.w3.org/2000/svg">
<g clip-path="url(#clip0_783_593)">
<path d="M17.5 10L10 2.5L2.5 10H4.16667V15.8333C4.16667 16.2754 4.34226 16.6993 4.65482 17.0118C4.96738 17.3244 5.39131 17.5 5.83333 17.5H10.8333" stroke="black" stroke-opacity="0.5" stroke-width="0.83" stroke-linecap="round" stroke-linejoin="round"/>
<path d="M7.5 17.4999V12.4999C7.5 12.0579 7.6756 11.634 7.98816 11.3214C8.30072 11.0088 8.72464 10.8333 9.16667 10.8333H10.8333C11.1583 10.8333 11.4617 10.9266 11.7175 11.0866" stroke="black" stroke-opacity="0.5" stroke-width="0.83" stroke-linecap="round" stroke-linejoin="round"/>
<path d="M15.8334 17.9167L17.9317 15.7667C18.1917 15.4966 18.3369 15.1362 18.3369 14.7613C18.3369 14.3864 18.1917 14.026 17.9317 13.7559C17.8052 13.6242 17.6534 13.5195 17.4854 13.448C17.3174 13.3765 17.1368 13.3396 16.9542 13.3396C16.7716 13.3396 16.5909 13.3765 16.423 13.448C16.255 13.5195 16.1032 13.6242 15.9767 13.7559L15.8367 13.8992L15.6967 13.7559C15.5702 13.6242 15.4184 13.5195 15.2504 13.448C15.0825 13.3765 14.9018 13.3396 14.7192 13.3396C14.5366 13.3396 14.3559 13.3765 14.188 13.448C14.02 13.5195 13.8682 13.6242 13.7417 13.7559C13.482 14.026 13.3369 14.3862 13.3369 14.7609C13.3369 15.1356 13.482 15.4958 13.7417 15.7659L15.8334 17.9242V17.9167Z" stroke="black" stroke-opacity="0.5" stroke-width="0.83" stroke-linecap="round" stroke-linejoin="round"/>
</g>
<defs>
<clipPath id="clip0_783_593">
<rect width="20" height="20" fill="white"/>
</clipPath>
</defs>
</svg>
