<svg width="100" height="100" viewBox="0 0 100 100" fill="none" xmlns="http://www.w3.org/2000/svg">
<path d="M62.5 43.75C62.5 47.0652 61.183 50.2446 58.8388 52.5888C56.4946 54.933 53.3152 56.25 50 56.25C46.6848 56.25 43.5054 54.933 41.1612 52.5888C38.817 50.2446 37.5 47.0652 37.5 43.75C37.5 40.4348 38.817 37.2554 41.1612 34.9112C43.5054 32.567 46.6848 31.25 50 31.25C53.3152 31.25 56.4946 32.567 58.8388 34.9112C61.183 37.2554 62.5 40.4348 62.5 43.75Z" stroke="#283D27" stroke-width="3" stroke-linecap="round" stroke-linejoin="round"/>
<path d="M81.25 43.75C81.25 73.5083 50 90.625 50 90.625C50 90.625 18.75 73.5083 18.75 43.75C18.75 35.462 22.0424 27.5134 27.9029 21.6529C33.7634 15.7924 41.712 12.5 50 12.5C58.288 12.5 66.2366 15.7924 72.0971 21.6529C77.9576 27.5134 81.25 35.462 81.25 43.75Z" stroke="#283D27" stroke-width="3" stroke-linecap="round" stroke-linejoin="round"/>
</svg>
