<svg width="20" height="20" viewBox="0 0 20 20" fill="none" xmlns="http://www.w3.org/2000/svg">
<g clip-path="url(#clip0_106_1701)">
<path d="M5.86481 3.75C5.04335 4.29297 4.33686 4.99239 3.78564 5.80833" stroke="#283D27" stroke-linecap="round" stroke-linejoin="round"/>
<path d="M2.65504 8.50757C2.46329 9.47258 2.46329 10.4659 2.65504 11.4309" stroke="#283D27" stroke-linecap="round" stroke-linejoin="round"/>
<path d="M3.75 14.135C4.29297 14.9565 4.99239 15.663 5.80833 16.2142" stroke="#283D27" stroke-linecap="round" stroke-linejoin="round"/>
<path d="M8.50732 17.345C9.47018 17.5358 10.4611 17.5358 11.424 17.345" stroke="#283D27" stroke-linecap="round" stroke-linejoin="round"/>
<path d="M14.1348 16.25C14.9562 15.707 15.6627 15.0076 16.2139 14.1917" stroke="#283D27" stroke-linecap="round" stroke-linejoin="round"/>
<path d="M17.3452 11.4924C17.537 10.5274 17.537 9.5341 17.3452 8.56909" stroke="#283D27" stroke-linecap="round" stroke-linejoin="round"/>
<path d="M16.2502 5.86506C15.7073 5.0436 15.0078 4.3371 14.1919 3.78589" stroke="#283D27" stroke-linecap="round" stroke-linejoin="round"/>
<path d="M11.4927 2.65495C10.5288 2.4577 9.53544 2.45204 8.56934 2.63829" stroke="#283D27" stroke-linecap="round" stroke-linejoin="round"/>
<path d="M10.0002 6.66675L8.3335 10.0001H11.6668L10.0002 13.3334" stroke="#283D27" stroke-linecap="round" stroke-linejoin="round"/>
<path d="M10 17.5C11.9891 17.5 13.8968 16.7098 15.3033 15.3033C16.7098 13.8968 17.5 11.9891 17.5 10C17.5 8.01088 16.7098 6.10322 15.3033 4.6967C13.8968 3.29018 11.9891 2.5 10 2.5" stroke="#283D27" stroke-linecap="round" stroke-linejoin="round"/>
</g>
<defs>
<clipPath id="clip0_106_1701">
<rect width="20" height="20" fill="white"/>
</clipPath>
</defs>
</svg>
