<svg width="30" height="31" viewBox="0 0 30 31" fill="none" xmlns="http://www.w3.org/2000/svg">
<path d="M3.75 26.7499L5.8125 21.9999C4.23458 19.76 3.52833 17.0212 3.82631 14.2975C4.12428 11.5739 5.40598 9.05257 7.43088 7.2068C9.45579 5.36103 12.0847 4.31767 14.8242 4.27252C17.5638 4.22738 20.2256 5.18356 22.3102 6.96162C24.3948 8.73967 25.7589 11.2174 26.1465 13.9297C26.534 16.6421 25.9184 19.4027 24.4151 21.6934C22.9119 23.9841 20.6243 25.6474 17.9817 26.3713C15.3392 27.0951 12.5233 26.8298 10.0625 25.6249L3.75 26.7499Z" stroke="black" stroke-opacity="0.6" stroke-width="2" stroke-linecap="round" stroke-linejoin="round"/>
<path d="M11.25 13C11.25 13.1658 11.3158 13.3247 11.4331 13.4419C11.5503 13.5592 11.7092 13.625 11.875 13.625C12.0408 13.625 12.1997 13.5592 12.3169 13.4419C12.4342 13.3247 12.5 13.1658 12.5 13V11.75C12.5 11.5842 12.4342 11.4253 12.3169 11.3081C12.1997 11.1908 12.0408 11.125 11.875 11.125C11.7092 11.125 11.5503 11.1908 11.4331 11.3081C11.3158 11.4253 11.25 11.5842 11.25 11.75V13ZM11.25 13C11.25 14.6576 11.9085 16.2473 13.0806 17.4194C14.2527 18.5915 15.8424 19.25 17.5 19.25M17.5 19.25H18.75C18.9158 19.25 19.0747 19.1842 19.1919 19.0669C19.3092 18.9497 19.375 18.7908 19.375 18.625C19.375 18.4592 19.3092 18.3003 19.1919 18.1831C19.0747 18.0658 18.9158 18 18.75 18H17.5C17.3342 18 17.1753 18.0658 17.0581 18.1831C16.9408 18.3003 16.875 18.4592 16.875 18.625C16.875 18.7908 16.9408 18.9497 17.0581 19.0669C17.1753 19.1842 17.3342 19.25 17.5 19.25Z" stroke="black" stroke-opacity="0.6" stroke-width="2" stroke-linecap="round" stroke-linejoin="round"/>
</svg>
